HIERARCHY
ROOT Hips
{
	OFFSET	0.00	0.00	0.00
	CHANNELS 6 Xposition Yposition Zposition Zrotation Xrotation Yrotation
	JOINT LeftUpLeg
	{
		OFFSET	 0.126116	-0.014019	-0.065224
		CHANNELS 3 Zrotation Xrotation Yrotation
		JOINT LeftLeg
		{
			OFFSET	 0.000000	 0.000000	 0.569914
			CHANNELS 3 Zrotation Xrotation Yrotation
			JOINT LeftFoot
			{
				OFFSET	 0.000000	 0.000000	 0.544423
				CHANNELS 3 Zrotation Xrotation Yrotation
				JOINT LeftToeBase
				{
					OFFSET	 0.000000	 0.000000	 0.207117
					CHANNELS 3 Zrotation Xrotation Yrotation
					End Site
					{
						OFFSET	 0.000000	 0.000000	 0.207117
					}
				}
			}
		}
	}
	JOINT RightUpLeg
	{
		OFFSET	-0.124023	-0.008373	-0.065224
		CHANNELS 3 Zrotation Xrotation Yrotation
		JOINT RightLeg
		{
			OFFSET	 0.000000	 0.000000	 0.570047
			CHANNELS 3 Zrotation Xrotation Yrotation
			JOINT RightFoot
			{
				OFFSET	 0.000000	 0.000000	 0.544354
				CHANNELS 3 Zrotation Xrotation Yrotation
				JOINT RightToeBase
				{
					OFFSET	 0.000000	 0.000000	 0.207540
					CHANNELS 3 Zrotation Xrotation Yrotation
					End Site
					{
						OFFSET	 0.000000	 0.000000	 0.207540
					}
				}
			}
		}
	}
	JOINT Spine
	{
		OFFSET	 0.000184	-0.007763	 0.117403
		CHANNELS 3 Zrotation Xrotation Yrotation
		JOINT Spine1
		{
			OFFSET	 0.000000	 0.000000	 0.137269
			CHANNELS 3 Zrotation Xrotation Yrotation
			JOINT Spine2
			{
				OFFSET	 0.000000	 0.000000	 0.156879
				CHANNELS 3 Zrotation Xrotation Yrotation
				JOINT LeftShoulder
				{
					OFFSET	 0.080501	-0.002496	 0.160144
					CHANNELS 3 Zrotation Xrotation Yrotation
					JOINT LeftArm
					{
						OFFSET	 0.000000	 0.000000	 0.164363
						CHANNELS 3 Zrotation Xrotation Yrotation
						JOINT LeftForeArm
						{
							OFFSET	 0.000000	 0.000000	 0.364576
							CHANNELS 3 Zrotation Xrotation Yrotation
							JOINT LeftHand
							{
								OFFSET	 0.000000	 0.000000	 0.360812
								CHANNELS 3 Zrotation Xrotation Yrotation
								JOINT LeftHandIndex1
								{
									OFFSET	 0.000000	 0.000000	 0.086006
									CHANNELS 3 Zrotation Xrotation Yrotation
									JOINT LeftHandIndex2
									{
										OFFSET	 0.000000	 0.000000	 0.047236
										CHANNELS 3 Zrotation Xrotation Yrotation
										JOINT LeftHandIndex3
										{
											OFFSET	-0.004284	-0.000551	 0.038166
											CHANNELS 3 Zrotation Xrotation Yrotation
											End Site
											{
												OFFSET	-0.004284	-0.000551	 0.038166
											}
										}
									}
								}
							}
						}
					}
				}
				JOINT Neck
				{
					OFFSET	 0.000000	 0.000000	 0.176489
					CHANNELS 3 Zrotation Xrotation Yrotation
					JOINT Head
					{
						OFFSET	 0.000000	-0.001747	 0.077940
						CHANNELS 3 Zrotation Xrotation Yrotation
						End Site
						{
							OFFSET	 0.000000	-0.001747	 0.077940
						}
					}
				}
				JOINT RightShoulder
				{
					OFFSET	-0.080363	 0.000306	 0.159706
					CHANNELS 3 Zrotation Xrotation Yrotation
					JOINT RightArm
					{
						OFFSET	 0.000000	 0.000000	 0.164196
						CHANNELS 3 Zrotation Xrotation Yrotation
						JOINT RightForeArm
						{
							OFFSET	 0.000000	 0.000000	 0.365611
							CHANNELS 3 Zrotation Xrotation Yrotation
							JOINT RightHand
							{
								OFFSET	 0.000000	 0.000000	 0.360648
								CHANNELS 3 Zrotation Xrotation Yrotation
								JOINT RightHandIndex1
								{
									OFFSET	 0.000000	 0.000000	 0.069977
									CHANNELS 3 Zrotation Xrotation Yrotation
									JOINT RightHandIndex2
									{
										OFFSET	 0.000000	 0.000000	 0.052305
										CHANNELS 3 Zrotation Xrotation Yrotation
										JOINT RightHandIndex3
										{
											OFFSET	 0.009002	-0.000782	 0.042196
											CHANNELS 3 Zrotation Xrotation Yrotation
											End Site
											{
												OFFSET	 0.009002	-0.000782	 0.042196
											}
										}
									}
								}
							}
						}
					}
				}
			}
		}
	}
}
MOTION
Frames:    11
Frame Time: 0.03333334
 0.013722	 0.059391	 1.202962	 4.972249	-1.113611	-2.730994	-0.425976	-12.517640	-171.075800	 0.953737	-38.381100	 0.373183	 50.086560	 79.793270	-54.501310	-2.369655	 31.572120	-0.068957	-5.318003	-30.000670	-176.804300	 11.132910	-52.411740	 9.472857	 21.840660	 78.738090	-18.024100	 2.358828	 33.020690	 0.103707	-6.425267	 8.499413	 2.037836	-1.996190	 1.951135	-1.413340	 3.208016	-2.287808	 1.584117	-93.948670	 58.949620	 175.368300	 27.390150	 46.421910	-19.980460	-2.035205	-2.967088	-29.117930	-1.815555	-25.992030	-8.262136	-4.870162	 19.241600	-2.790603	-3.878899	 21.506460	 2.200083	-4.806317	 5.568386	 0.145631	-0.073494	-5.077997	 0.185385	 1.080402	 1.741207	 2.707399	 89.776910	 61.650540	 179.987700	-20.036710	 52.698950	 12.544070	-1.730992	-1.749190	 8.858225	-4.726971	-11.377690	 0.579977	 6.292497	 24.736730	-0.539060	 1.901279	 44.572810	-7.007173	 0.548526	 24.178480	 3.557003
 0.013088	 0.049821	 1.202994	 5.622854	-0.539802	-2.766789	-1.001004	-12.631850	-171.119700	 1.232886	-38.209170	 0.544444	 49.186860	 79.746100	-53.791630	-2.368551	 31.754890	-0.073101	-7.037138	-31.497260	-176.887500	 12.038960	-51.364710	 10.061020	 45.220810	 82.943980	-42.584080	 2.359006	 32.995190	 0.103106	-6.726502	 8.045087	 1.843057	-1.947966	 1.896268	-1.183683	 2.984008	-2.699033	 1.472128	-94.104580	 58.980120	 175.032100	 28.064600	 45.828200	-20.098160	-2.352760	-2.973530	-30.707390	-1.725258	-27.159560	-9.040989	-4.865082	 19.372960	-2.799469	-3.870247	 21.616830	 2.191288	-4.804368	 5.591360	 0.144285	-0.040243	-5.104025	 0.229464	 0.952408	 1.506464	 2.597587	 89.717330	 61.756020	 179.844900	-19.550210	 53.124600	 11.239510	-2.222948	-1.899969	 9.196085	-4.910564	-11.854160	 0.362148	 6.277566	 23.641530	-0.550359	 2.031653	 43.491220	-7.122946	 0.779940	 23.152330	 3.441740
 0.012376	 0.030514	 1.202797	 6.235979	 0.250212	-3.036894	-1.515376	-12.254170	-170.997400	 1.492763	-37.628750	 0.696103	 48.913510	 79.829100	-53.692470	-2.366455	 32.095630	-0.080857	-8.349929	-33.812040	-176.746800	 12.843260	-48.981690	 10.345390	 89.777210	 83.044330	-88.937300	 2.360508	 32.770790	 0.097911	-6.881027	 7.312674	 1.763756	-1.854667	 2.137405	-0.786029	 2.594877	-3.349639	 1.231767	-94.301700	 58.988740	 174.610500	 28.637660	 44.676530	-20.504600	-3.010260	-2.850346	-33.269910	-1.790132	-29.210700	-9.212006	-4.852213	 19.674150	-2.813697	-3.854869	 21.812360	 2.175667	-4.797354	 5.673992	 0.139440	-0.011491	-5.158476	 0.292381	 0.642886	 1.206285	 2.510435	 89.604500	 61.906870	 179.572500	-18.802610	 53.705520	 9.183645	-3.234230	-2.199488	 9.754406	-5.508998	-12.664160	-0.327445	 6.250093	 21.929440	-0.597304	 2.200539	 42.021000	-7.271795	 1.160643	 21.424090	 3.259659
 0.011614	 0.002867	 1.202144	 6.502150	 0.805804	-3.440737	-1.781592	-10.915050	-170.791200	 1.635428	-36.590880	 0.764702	 48.769880	 79.968710	-53.629880	-2.361430	 32.871950	-0.098698	-7.841324	-35.804050	-176.162400	 12.516750	-45.026400	 9.475322	 116.056800	 79.333690	-116.510300	 2.356382	 33.375790	 0.111979	-6.835893	 6.583780	 1.863132	-1.722511	 2.965148	-0.357124	 2.140690	-4.164964	 0.926974	-94.436790	 58.971160	 174.325400	 28.423290	 43.219680	-21.280230	-3.749483	-2.596334	-35.792220	-2.170999	-31.354380	-8.802521	-4.833323	 20.068250	-2.821879	-3.833833	 22.078170	 2.154294	-4.779816	 5.880136	 0.127310	 0.012406	-5.242653	 0.333916	 0.225876	 0.904097	 2.435663	 89.485680	 62.018060	 179.283700	-17.794050	 54.212530	 6.812506	-4.577570	-2.535730	 10.115080	-6.393673	-13.825980	-1.581265	 6.212253	 19.879730	-0.675748	 2.431012	 39.878990	-7.472661	 1.603551	 19.352070	 3.060199
 0.010352	-0.031533	 1.200769	 6.706492	 1.001716	-3.769522	-2.144808	-8.669322	-170.717100	 1.792256	-35.201310	 0.829942	 46.463650	 79.869380	-51.378150	-2.349045	 34.598000	-0.139255	-6.727290	-36.800710	-175.399800	 11.851200	-39.191090	 8.045685	 118.957700	 76.423460	-120.259700	 2.343908	 35.042380	 0.151545	-6.882191	 6.235662	 1.963279	-1.568439	 3.879016	 0.049265	 1.624707	-5.074474	 0.593349	-94.512860	 58.930940	 174.170000	 27.301110	 41.803260	-22.271730	-4.099156	-2.503824	-37.613210	-2.898551	-33.754700	-8.951373	-4.832711	 20.376320	-2.909567	-3.807750	 22.405230	 2.127803	-4.749266	 6.237835	 0.106099	 0.062565	-5.338229	 0.350268	-0.226154	 0.644968	 2.228684	 89.397990	 62.018620	 179.071700	-16.524370	 54.545350	 4.146535	-5.908360	-2.768464	 10.040380	-7.132574	-15.596590	-3.004247	 6.177625	 17.672990	-0.709899	 2.706234	 37.096530	-7.708652	 2.057683	 17.161030	 2.870209
 0.007740	-0.072391	 1.198065	 6.980348	 0.981655	-3.822123	-2.779351	-5.796911	-171.006700	 2.151114	-33.647510	 0.996683	 39.032820	 78.892360	-44.062920	-2.316308	 38.297490	-0.230901	-6.162571	-36.736650	-175.056600	 11.070830	-31.447070	 6.235654	 91.955160	 77.857090	-93.582150	 2.336729	 35.912530	 0.172699	-7.098520	 6.155598	 1.882309	-1.347536	 4.761691	 0.409784	 0.959342	-6.017836	 0.196665	-94.534410	 59.041810	 174.105800	 25.657070	 40.683280	-23.695520	-4.165805	-2.530340	-38.483780	-4.212006	-36.977740	-9.978385	-4.859164	 20.545180	-3.113284	-3.779120	 22.760980	 2.098732	-4.704672	 6.756652	 0.074965	 0.138562	-5.434732	 0.319441	-0.734297	 0.468962	 1.929058	 89.357280	 61.830060	 178.980500	-15.166200	 54.584350	 1.192956	-7.119821	-2.944130	 9.855303	-7.776677	-18.119160	-4.356369	 6.172831	 15.328880	-0.578412	 2.932408	 34.608570	-7.898953	 2.524990	 14.839380	 2.690858
 0.003085	-0.114163	 1.193006	 7.245192	 0.743637	-3.310947	-3.268184	-2.827279	-171.993100	 2.132002	-32.689530	 0.961186	 27.942410	 76.204770	-32.542240	-2.228138	 45.155850	-0.423637	-5.230113	-36.854090	-175.210900	 8.501847	-25.830720	 4.063286	 43.062210	 76.277280	-42.393790	 2.339794	 35.547130	 0.163777	-7.356741	 6.165659	 1.321374	-1.028692	 5.818468	 0.783661	 0.139582	-6.790129	-0.332087	-94.485960	 59.288730	 174.168200	 24.163520	 40.075370	-25.163350	-4.324710	-2.457824	-39.108860	-5.753751	-40.078750	-11.015720	-4.885585	 20.659630	-3.302640	-3.759215	 23.006350	 2.078523	-4.651353	 7.371883	 0.037478	 0.221017	-5.478573	 0.259680	-1.292722	 0.423170	 1.853595	 89.354820	 61.539210	 178.985300	-14.034460	 54.364780	-1.690582	-8.066552	-3.346116	 10.539700	-8.623312	-21.009480	-5.375534	 6.228796	 13.004270	-0.193505	 3.076756	 32.917790	-8.018459	 2.951380	 12.665450	 2.542207
-0.001936	-0.152169	 1.186346	 7.746791	 0.251224	-2.632081	-3.294392	 0.161848	-173.304700	 1.076085	-32.093300	 0.384338	 19.146070	 71.662140	-22.170440	-2.084438	 52.222040	-0.669807	-3.500564	-38.128570	-174.974200	 6.385950	-23.957160	 2.913412	 14.808710	 68.869450	-10.979810	 2.338486	 35.703860	 0.167597	-7.692348	 6.251878	 0.508800	-0.796521	 7.158145	 1.298906	-0.688191	-7.461158	-0.959555	-94.428820	 59.268580	 174.294200	 22.947210	 39.472310	-26.279620	-4.588927	-2.325013	-40.127170	-6.603889	-41.880260	-11.307250	-4.895313	 20.794320	-3.403811	-3.746234	 23.165530	 2.065337	-4.602890	 7.926359	 0.003142	 0.302830	-5.453259	 0.255939	-1.833518	 0.519575	 1.972429	 89.304600	 61.406650	 178.871400	-13.232720	 54.122510	-3.855617	-8.531966	-3.744629	 11.442860	-9.193162	-23.561660	-5.544642	 6.300188	 11.134490	 0.180906	 3.201138	 31.392250	-8.120090	 3.252450	 11.100940	 2.446208
-0.008486	-0.202017	 1.176992	 8.963526	-0.538007	-1.814499	-3.224532	 4.343336	-175.197700	 0.034542	-30.819890	-0.163018	 11.235450	 61.321030	-11.841530	-1.728467	 61.969470	-1.160394	-1.406767	-40.219070	-174.263300	 6.741609	-23.926920	 3.056184	 1.570294	 56.518940	 4.226967	 2.337668	 35.801990	 0.169996	-8.314786	 6.469232	-0.264287	-0.695964	 8.848118	 1.410501	-1.828800	-8.157976	-1.534609	-94.348460	 59.106640	 174.492600	 21.831640	 38.642890	-27.696040	-4.773358	-2.265037	-41.353030	-7.033930	-42.992310	-11.498150	-4.874226	 21.035530	-3.361160	-3.717000	 23.521410	 2.035675	-4.547630	 8.552979	-0.036291	 0.386676	-5.383507	 0.278453	-2.615545	 0.782390	 2.061017	 89.149980	 61.265060	 178.513400	-12.410930	 53.667910	-5.952394	-8.347540	-4.077106	 12.560740	-8.874481	-26.623200	-4.570348	 6.352602	 9.358784	 0.429221	 3.343987	 29.558420	-8.235126	 3.516023	 9.712761	 2.368430
-0.016003	-0.257915	 1.168738	 10.053670	-1.072170	-0.878078	-1.633146	 9.035332	-177.958300	 1.222677	-28.029680	 0.408844	 4.983140	 45.502690	-2.972037	-1.093977	 70.343150	-1.905989	-2.804759	-41.078780	-175.688100	 7.311622	-23.256660	 3.204162	-0.580697	 46.147290	 6.509557	 2.353204	 33.821290	 0.122445	-8.697326	 6.530775	-0.925375	-0.771042	 10.008190	 1.032216	-3.046026	-8.546427	-1.919100	-94.215870	 59.455730	 174.723300	 21.359440	 38.349150	-29.342120	-4.311888	-2.689231	-41.529540	-7.363559	-43.844150	-12.500190	-4.810649	 21.294680	-3.068914	-3.667421	 24.117320	 1.985359	-4.503524	 9.048841	-0.067979	 0.389468	-5.343663	 0.227524	-3.549356	 1.062226	 2.004515	 89.020290	 60.741680	 178.240300	-11.825160	 52.812060	-7.780416	-7.338702	-4.228859	 13.818040	-7.442559	-29.711640	-3.058060	 6.375854	 8.666526	 0.529246	 3.389833	 28.950560	-8.271641	 3.653160	 8.984065	 2.330325
-0.023588	-0.320754	 1.162230	 9.853120	-1.454831	 0.037157	 5.330546	 12.566000	 177.132000	 1.286299	-27.873310	 0.436495	 3.867941	 32.703930	 3.378155	-1.886372	 58.459510	-0.954775	-4.338656	-39.515070	-178.526000	 5.950239	-22.426150	 2.569150	 0.028450	 42.150090	 7.481312	 2.368922	 31.436010	 0.067368	-8.379736	 6.652530	-1.536361	-0.992155	 10.020410	 0.626849	-4.064949	-8.443938	-2.312493	-94.086810	 59.858690	 174.942100	 21.201710	 38.802670	-29.859820	-3.407866	-3.459038	-41.243210	-7.474009	-45.026570	-13.184350	-4.760560	 21.534610	-2.844333	-3.615038	 24.736540	 1.932225	-4.462413	 9.507627	-0.097682	 0.329789	-5.380295	 0.175414	-4.541730	 1.191611	 2.012106	 89.016990	 60.266290	 178.260100	-11.659750	 51.991710	-9.153670	-6.220152	-4.222779	 14.802120	-5.681071	-32.895910	-1.608333	 6.401009	 9.225712	 0.626379	 3.358816	 29.362790	-8.246958	 3.646911	 9.017335	 2.332024
